HIERARCHY
ROOT Hips
{
	OFFSET 0.00000 0.00000 0.00000
	CHANNELS 6 Xposition Yposition Zposition Zrotation Yrotation Xrotation 
	JOINT LHipJoint
	{
		OFFSET 0 0 0
		CHANNELS 3 Zrotation Yrotation Xrotation
		JOINT LeftUpLeg
		{
			OFFSET 1.36337 -1.57426 1.11036
			CHANNELS 3 Zrotation Yrotation Xrotation
			JOINT LeftLeg
			{
				OFFSET 2.38468 -6.55187 0.00000
				CHANNELS 3 Zrotation Yrotation Xrotation
				JOINT LeftFoot
				{
					OFFSET 2.37166 -6.51609 0.00000
					CHANNELS 3 Zrotation Yrotation Xrotation
					JOINT LeftToeBase
					{
						OFFSET 0.29078 -0.79891 2.01393
						CHANNELS 3 Zrotation Yrotation Xrotation
						End Site
						{
							OFFSET 0.00000 -0.00000 1.07924
						}
					}
				}
			}
		}
	}
	JOINT RHipJoint
	{
		OFFSET 0 0 0
		CHANNELS 3 Zrotation Yrotation Xrotation
		JOINT RightUpLeg
		{
			OFFSET -1.36349 -1.57426 1.11036
			CHANNELS 3 Zrotation Yrotation Xrotation
			JOINT RightLeg
			{
				OFFSET -2.29562 -6.30717 0.00000
				CHANNELS 3 Zrotation Yrotation Xrotation
				JOINT RightFoot
				{
					OFFSET -2.40985 -6.62100 0.00000
					CHANNELS 3 Zrotation Yrotation Xrotation
					JOINT RightToeBase
					{
						OFFSET -0.23197 -0.63733 1.92232
						CHANNELS 3 Zrotation Yrotation Xrotation
						End Site
						{
							OFFSET -0.00000 -0.00000 1.01562
						}
					}
				}
			}
		}
	}
	JOINT LowerBack
	{
		OFFSET 0 0 0
		CHANNELS 3 Zrotation Yrotation Xrotation
		JOINT Spine
		{
			OFFSET -0.08565 2.03602 -0.24562
			CHANNELS 3 Zrotation Yrotation Xrotation
			JOINT Spine1
			{
				OFFSET -0.00036 2.05693 0.00216
				CHANNELS 3 Zrotation Yrotation Xrotation
				JOINT Neck
				{
					OFFSET 0 0 0
					CHANNELS 3 Zrotation Yrotation Xrotation
					JOINT Neck1
					{
						OFFSET -0.03664 1.69515 0.31789
						CHANNELS 3 Zrotation Yrotation Xrotation
						JOINT Head
						{
							OFFSET 0.00932 1.70181 -0.46013
							CHANNELS 3 Zrotation Yrotation Xrotation
							End Site
							{
								OFFSET 0.01243 1.77620 -0.19377
							}
						}
					}
				}
				JOINT LeftShoulder
				{
					OFFSET 0 0 0
					CHANNELS 3 Zrotation Yrotation Xrotation
					JOINT LeftArm
					{
						OFFSET 3.74344 0.81315 -0.36647
						CHANNELS 3 Zrotation Yrotation Xrotation
						JOINT LeftForeArm
						{
							OFFSET 4.97185 -0.00000 -0.00000
							CHANNELS 3 Zrotation Yrotation Xrotation
							JOINT LeftHand
							{
								OFFSET 3.35811 -0.00000 0.00000
								CHANNELS 3 Zrotation Yrotation Xrotation
								JOINT LeftFingerBase
								{
									OFFSET 0 0 0
									CHANNELS 3 Zrotation Yrotation Xrotation
									JOINT LeftHandIndex1
									{
										OFFSET 0.62278 -0.00000 0.00000
										CHANNELS 3 Zrotation Yrotation Xrotation
										End Site
										{
											OFFSET 0.50210 -0.00000 0.00000
										}
									}
								}
								JOINT LThumb
								{
									OFFSET 0 0 0
									CHANNELS 3 Zrotation Yrotation Xrotation
									End Site
									{
										OFFSET 0.50976 -0.00000 0.50976
									}
								}
							}
						}
					}
				}
				JOINT RightShoulder
				{
					OFFSET 0 0 0
					CHANNELS 3 Zrotation Yrotation Xrotation
					JOINT RightArm
					{
						OFFSET -3.75385 0.50666 -0.06525
						CHANNELS 3 Zrotation Yrotation Xrotation
						JOINT RightForeArm
						{
							OFFSET -4.96493 -0.00000 -0.00000
							CHANNELS 3 Zrotation Yrotation Xrotation
							JOINT RightHand
							{
								OFFSET -3.34929 -0.00000 0.00000
								CHANNELS 3 Zrotation Yrotation Xrotation
								JOINT RightFingerBase
								{
									OFFSET 0 0 0
									CHANNELS 3 Zrotation Yrotation Xrotation
									JOINT RightHandIndex1
									{
										OFFSET -0.63804 -0.00000 0.00000
										CHANNELS 3 Zrotation Yrotation Xrotation
										End Site
										{
											OFFSET -0.51441 -0.00000 0.00000
										}
									}
								}
								JOINT RThumb
								{
									OFFSET 0 0 0
									CHANNELS 3 Zrotation Yrotation Xrotation
									End Site
									{
										OFFSET -0.52226 -0.00000 0.52226
									}
								}
							}
						}
					}
				}
			}
		}
	}
}
MOTION
Frames: 6
Frame Time: .0083333
-24.2143 15.6761 -0.6247 7.0799 117.8380 380.9120 0.0000 0.0000 0.0000 -9.8607 -1.0444 -53.6408 11.9566 18.3723 65.8513 1.1004 -1.9499 -19.2739 0.1026 -2.0654 -5.6863 0.0000 0.0000 0.0000 21.3039 -15.9295 14.1293 0.0000 0.0000 0.0000 -0.1404 -13.1548 -20.3146 -1.0625 6.5534 -18.3988 -0.0881 3.8751 10.7016 -0.1939 5.3984 5.3002 -0.7354 2.8120 -0.4485 -3.2413 0.1445 -29.0150 -3.8258 4.1473 32.0838 -0.1439 0.9106 16.4896 0.0000 -0.0000 0.0000 -79.2913 16.2996 6.6515 12.3332 -20.3025 -2.2166 -0.0000 0.0000 -7.0874 26.4262 -8.6065 -4.2533 -7.1250 0.0000 -0.0000 -0.3345 20.3868 0.1970 0.0000 -0.0000 0.0000 74.5196 7.2140 43.6012 -56.1763 55.2018 -31.1797 0.0000 -0.0000 -16.0167 -14.9422 -16.9231 4.4419 7.1250 -0.0000 -0.0000 12.3194 -47.0769 -0.6408
-23.9968 15.5501 -0.7711 7.2726 118.7490 381.6290 0.0000 0.0000 0.0000 -10.1178 -0.3875 -54.7947 12.5236 18.6033 67.6390 1.0470 -2.2883 -18.7097 0.0831 -1.8599 -5.1188 0.0000 0.0000 0.0000 21.5255 -16.1180 14.8181 0.0000 0.0000 -0.0000 -0.2248 -12.9184 -20.9142 -1.0635 6.5563 -18.4074 -0.1447 4.1162 10.3816 -0.1899 5.6925 5.0393 -0.7189 2.9479 -0.5488 -3.5718 -0.4300 -28.4752 -2.7351 2.9882 32.1049 0.1330 0.5726 16.3256 -0.0000 0.0000 0.0000 -78.4223 16.8655 10.1402 14.0784 -22.8467 -2.8585 -0.0000 0.0000 -11.2839 26.9276 -8.4759 -4.2815 -7.1250 0.0000 -0.0000 0.0329 20.4909 -0.0193 -0.0000 0.0000 0.0000 74.0105 6.1323 43.1799 -55.7953 55.0812 -30.8671 0.0000 -0.0000 -15.4363 -2.2420 -20.8324 0.7977 7.1250 -0.0000 -0.0000 25.5550 -49.0218 -2.6954
-23.7600 15.4395 -0.9508 6.7508 119.3610 381.7120 0.0000 0.0000 0.0000 -11.0288 0.3846 -55.3759 13.0279 18.7922 69.2121 1.1365 -2.7939 -19.4145 0.1360 -2.3769 -6.5483 0.0000 0.0000 0.0000 21.1091 -16.1312 15.6149 0.0000 0.0000 0.0000 -0.2194 -12.8877 -20.8202 -1.2115 6.9825 -19.6636 -0.4553 4.3546 9.7796 -0.3623 5.9726 4.9672 -0.7055 3.0805 -0.3058 -3.8863 -1.0091 -28.2302 -1.7204 1.8629 32.1596 0.3832 0.2296 16.2726 0.0000 0.0000 0.0000 -77.5697 16.6751 13.4641 15.9503 -25.4531 -3.6246 -0.0000 0.0000 -15.2478 27.0606 -8.5918 -4.3643 -7.1250 0.0000 -0.0000 0.1220 20.3504 -0.0720 0.0000 0.0000 0.0000 73.7175 5.0006 42.6848 -54.7904 54.7539 -30.0448 0.0000 -0.0000 -15.0767 -6.5139 -19.1775 2.1480 7.1250 -0.0000 -0.0000 20.9019 -48.1104 -1.6724
-23.5084 15.3530 -1.1608 5.6425 119.7590 381.2770 0.0000 0.0000 0.0000 -12.3180 0.9788 -55.3017 13.3894 18.9183 70.3307 1.3410 -3.9108 -20.9558 0.1322 -2.3433 -6.4555 0.0000 0.0000 0.0000 20.1851 -16.0185 16.4315 0.0000 -0.0000 0.0000 -0.0910 -13.2831 -19.9379 -1.4871 7.7043 -21.8194 -1.0634 4.4382 9.3418 -0.5149 6.0413 5.0546 -0.4915 3.1068 -0.0201 -4.4520 -1.4681 -28.6407 -0.7196 1.0380 32.0481 0.7322 -0.0398 16.3035 -0.0000 -0.0000 0.0000 -77.3350 16.1233 16.0297 18.1427 -28.3394 -4.6168 -0.0000 0.0000 -18.6604 27.0400 -8.6852 -4.4073 -7.1250 0.0000 -0.0000 0.1020 20.2480 -0.0604 -0.0000 -0.0000 0.0000 73.2395 4.2431 42.4641 -53.1121 54.1761 -28.6789 0.0000 -0.0000 -15.4797 -4.1172 -20.3724 1.4354 7.1250 -0.0000 -0.0000 23.6297 -48.8761 -2.3808
-23.2408 15.2922 -1.4001 4.6608 120.0870 381.0520 0.0000 0.0000 0.0000 -13.5136 1.2883 -54.7859 13.5753 18.9801 70.9031 1.6333 -5.9703 -22.9685 0.0911 -1.9469 -5.3588 0.0000 0.0000 0.0000 19.4957 -15.0438 14.8637 -0.0568 -1.5375 4.2291 -0.1366 -12.9915 -20.0624 -1.7879 8.4095 -23.9648 -1.5680 4.5832 8.6756 -0.6867 6.2133 5.1758 -0.3394 3.1841 0.4371 -5.0627 -2.0246 -28.9538 0.5095 -0.0099 31.7930 1.1374 -0.3672 16.2675 0.0000 -0.0000 0.0000 -76.9519 15.4534 18.6970 20.7168 -31.4963 -5.9013 -0.0000 0.0000 -21.2670 26.8925 -9.0018 -4.5372 -7.1250 0.0000 -0.0000 -0.0217 19.9075 0.0130 0.0000 -0.0000 0.0000 73.0185 3.2195 41.9535 -50.9111 53.3564 -26.9035 0.0000 -0.0000 -16.0322 -3.4792 -20.5246 1.2212 7.1250 -0.0000 -0.0000 24.2824 -48.9226 -2.4832
-22.9783 15.2654 -1.6346 3.8002 120.9350 380.7420 0.0000 0.0000 0.0000 -14.4561 1.1839 -53.7952 13.6021 18.9889 70.9855 1.7973 -5.3224 -24.2054 0.0186 -0.8810 -2.4215 0.0000 0.0000 0.0000 19.0787 -14.1530 11.9636 -0.3812 -3.9652 10.9787 -0.2655 -12.3288 -20.6276 -1.5233 7.7932 -22.0877 -1.8741 4.6904 8.6952 -0.8159 6.3263 5.0704 -0.3216 3.2351 0.2996 -5.2118 -2.6282 -28.5711 1.5144 -1.2808 31.3901 1.3171 -0.7518 16.0384 0.0000 -0.0000 0.0000 -76.0977 14.8862 22.0065 23.5742 -34.7107 -7.4627 -0.0000 0.0000 -23.0553 26.7038 -9.5959 -4.7933 -7.1250 0.0000 -0.0000 -0.1909 19.2634 0.1172 0.0000 -0.0000 0.0000 73.3110 1.4877 41.1671 -48.0325 52.1705 -24.6114 0.0000 -0.0000 -16.1960 -4.2078 -20.1337 1.4507 7.1250 -0.0000 -0.0000 23.4326 -48.6705 -2.2347
